<svg width="32" height="32" viewBox="0 0 32 32" fill="none" xmlns="http://www.w3.org/2000/svg">
<g id="Group">
<path id="Path" d="M24.6698 16C24.6698 16.3683 24.3712 16.6669 24.0029 16.6669C23.6345 16.6669 23.3359 16.3683 23.3359 16C23.3359 15.6316 23.6345 15.333 24.0029 15.333C24.3712 15.333 24.6698 15.6316 24.6698 16" stroke="white" stroke-width="1.5" stroke-linecap="round" stroke-linejoin="round"/>
<path id="Path_2" d="M16.6659 16C16.6659 16.3683 16.3673 16.6669 15.999 16.6669C15.6306 16.6669 15.332 16.3683 15.332 16C15.332 15.6316 15.6306 15.333 15.999 15.333C16.3673 15.333 16.6659 15.6316 16.6659 16" stroke="white" stroke-width="1.5" stroke-linecap="round" stroke-linejoin="round"/>
<path id="Path_3" d="M8.66201 16C8.66201 16.3683 8.36341 16.6669 7.99507 16.6669C7.62673 16.6669 7.32812 16.3683 7.32812 16C7.32812 15.6316 7.62673 15.333 7.99507 15.333C8.36341 15.333 8.66201 15.6316 8.66201 16" stroke="white" stroke-width="1.5" stroke-linecap="round" stroke-linejoin="round"/>
</g>
</svg>
