<svg width="32" height="32" viewBox="0 0 32 32" fill="none" xmlns="http://www.w3.org/2000/svg">
<g id="Group">
<g id="Group_2">
<path id="Path" fill-rule="evenodd" clip-rule="evenodd" d="M14.6667 25.856V10.004C14.6667 9.08398 14.1933 8.22931 13.4133 7.74264L8.08 4.40931C6.304 3.29998 4 4.57598 4 6.67064V22.5213C4 23.4413 4.47333 24.296 5.25333 24.7826L10.5867 28.116C12.3627 29.2266 14.6667 27.9493 14.6667 25.856Z" stroke="white" stroke-opacity="0.8" stroke-width="1.5" stroke-linecap="round" stroke-linejoin="round"/>
<path id="Path_2" d="M20 14.6667H28" stroke="white" stroke-opacity="0.8" stroke-width="1.5" stroke-linecap="round" stroke-linejoin="round"/>
<path id="Path_3" d="M25.3359 17.3333L28.0026 14.6667L25.3359 12" stroke="white" stroke-opacity="0.8" stroke-width="1.5" stroke-linecap="round" stroke-linejoin="round"/>
<path id="Path_4" d="M14.6641 25.334H19.9974C21.4707 25.334 22.6641 24.1407 22.6641 22.6673V21.334" stroke="white" stroke-opacity="0.8" stroke-width="1.5" stroke-linecap="round" stroke-linejoin="round"/>
<path id="Path_5" d="M22.6641 8V6.66667C22.6641 5.19333 21.4707 4 19.9974 4H6.66406" stroke="white" stroke-opacity="0.8" stroke-width="1.5" stroke-linecap="round" stroke-linejoin="round"/>
</g>
</g>
</svg>
