<svg width="57" height="23" viewBox="0 0 57 23" fill="none" xmlns="http://www.w3.org/2000/svg">
<g id="Muse 1" clip-path="url(#clip0_2062_24917)">
<path id="Vector" d="M10.4142 8.17852L10.4141 1.0918L18.84 11.4966L18.8394 16.9523L10.4142 8.17852Z" fill="white"/>
<path id="Vector_2" d="M9.90348 0.595703H9.93358C10.1985 0.595703 10.4132 0.821818 10.4132 1.10076V17.9431H9.42188V1.10076C9.42188 0.821818 9.63657 0.595703 9.90145 0.595703H9.90348Z" fill="white"/>
<path id="Vector_3" d="M6.46143 20.794C9.02809 20.3484 10.7717 18.8217 10.3559 17.3841C9.9401 15.9464 7.52232 15.1421 4.95571 15.5877C2.38909 16.0333 0.6455 17.56 1.0613 18.9977C1.4771 20.4354 3.89483 21.2396 6.46143 20.794Z" fill="white"/>
<path id="Vector_4" d="M7.6152 16.3376C6.92933 16.2207 6.15474 16.2186 5.3613 16.3614C4.32311 16.5476 3.44361 16.948 2.83575 17.4502C2.61252 17.6342 2.91375 17.9199 3.17465 17.7683C3.86319 17.3679 4.71041 17.0562 5.66252 16.8853C6.31072 16.7683 6.94816 16.7272 7.55334 16.751C7.8761 16.764 7.93256 16.3896 7.61788 16.3354L7.6152 16.3376Z" fill="#D9D8BC"/>
<path id="Vector_5" d="M2.67368 18.2188C2.67368 18.34 2.54996 18.4396 2.39934 18.4396C2.24872 18.4396 2.125 18.34 2.125 18.2188C2.125 18.0976 2.24872 17.998 2.39934 17.998C2.54996 17.998 2.67368 18.0976 2.67368 18.2188Z" fill="#D9D8BC"/>
<path id="Vector_6" d="M30.2386 5.05664H26.2734V17.9433H30.2386V5.05664Z" fill="white"/>
<path id="Vector_7" d="M26.3851 5.05664L29.7375 6.97757L20.3203 17.943L20.3745 11.6104L26.3851 5.05664Z" fill="white"/>
<path id="Vector_8" d="M33.7378 15.9605C33.4723 15.9605 33.2654 15.8904 33.117 15.7502C32.9686 15.61 32.8632 15.4348 32.8007 15.2245C32.7461 15.0142 32.7188 14.8001 32.7188 14.582V9.11494H33.9721V14.2082C33.9721 14.4496 34.0073 14.6404 34.0775 14.7806C34.1478 14.913 34.2923 14.9792 34.5109 14.9792C34.6515 14.9792 34.796 14.9403 34.9444 14.8624C35.1005 14.7767 35.2489 14.6755 35.3895 14.5587V9.11494H36.6428V15.867H35.3895V15.2011C35.1708 15.4114 34.9209 15.5905 34.6398 15.7385C34.3665 15.8865 34.0658 15.9605 33.7378 15.9605ZM39.4943 15.9605C38.9398 15.9605 38.4947 15.7891 38.1589 15.4465C37.8231 15.096 37.6318 14.6365 37.585 14.068L38.6275 13.7526C38.69 14.1809 38.7954 14.5041 38.9437 14.7222C39.0921 14.9325 39.3108 15.0376 39.5997 15.0376C39.8262 15.0376 39.998 14.9753 40.1151 14.8507C40.2323 14.7183 40.2908 14.5431 40.2908 14.325C40.2908 14.1303 40.2479 13.9551 40.162 13.7993C40.0761 13.6436 39.9355 13.4839 39.7403 13.3204L38.5806 12.3274C38.3464 12.1249 38.1472 11.8991 37.9832 11.6499C37.827 11.4007 37.749 11.0775 37.749 10.6803C37.749 10.3221 37.8192 10.0222 37.9598 9.7808C38.1082 9.53159 38.3112 9.34468 38.5689 9.22008C38.8344 9.08768 39.1429 9.02148 39.4943 9.02148C40.0331 9.02148 40.4431 9.19671 40.7242 9.54716C41.0132 9.88983 41.1772 10.3065 41.2162 10.7971L40.3728 11.1125C40.3416 10.8789 40.2947 10.6764 40.2323 10.5051C40.1698 10.326 40.0839 10.1897 39.9746 10.0962C39.8652 9.99497 39.7208 9.94435 39.5411 9.94435C39.3381 9.94435 39.1741 10.0144 39.0492 10.1546C38.932 10.287 38.8735 10.4467 38.8735 10.6336C38.8735 10.7504 38.8969 10.8672 38.9437 10.984C38.9984 11.0931 39.0882 11.2021 39.2132 11.3111L40.408 12.4092C40.572 12.5572 40.7242 12.7168 40.8648 12.8882C41.0132 13.0595 41.1342 13.2542 41.2279 13.4722C41.3216 13.6903 41.3685 13.9434 41.3685 14.2316C41.3685 14.6132 41.2904 14.9325 41.1342 15.1895C40.978 15.4465 40.7594 15.6412 40.4782 15.7736C40.1971 15.8982 39.8691 15.9605 39.4943 15.9605ZM44.18 15.9605C43.649 15.9605 43.239 15.8592 42.9501 15.6567C42.6611 15.4465 42.4581 15.1427 42.341 14.7456C42.2316 14.3406 42.177 13.8461 42.177 13.262V11.72C42.177 11.1203 42.2355 10.6219 42.3527 10.2247C42.4698 9.82753 42.6729 9.5277 42.9618 9.32521C43.2585 9.12273 43.6646 9.02148 44.18 9.02148C44.7501 9.02148 45.1679 9.1383 45.4334 9.37194C45.7067 9.60557 45.8863 9.94435 45.9722 10.3883C46.0581 10.8244 46.1011 11.3501 46.1011 11.9653V12.5143H43.4303V13.8694C43.4303 14.142 43.4538 14.364 43.5006 14.5353C43.5553 14.7066 43.6373 14.8351 43.7466 14.9208C43.8637 14.9987 44.0121 15.0376 44.1917 15.0376C44.3792 15.0376 44.5197 14.9948 44.6134 14.9091C44.7149 14.8156 44.7813 14.6871 44.8126 14.5236C44.8516 14.3523 44.8711 14.1537 44.8711 13.9278V13.519H46.0894V13.776C46.0894 14.4535 45.9449 14.987 45.6559 15.3764C45.367 15.7658 44.875 15.9605 44.18 15.9605ZM43.4303 11.8368H44.8711V11.2293C44.8711 10.949 44.8555 10.7153 44.8243 10.5284C44.793 10.3337 44.7267 10.1897 44.6251 10.0962C44.5314 9.99497 44.3792 9.94435 44.1683 9.94435C43.9653 9.94435 43.8091 9.99107 43.6998 10.0845C43.5982 10.178 43.528 10.3376 43.4889 10.5635C43.4499 10.7815 43.4303 11.0853 43.4303 11.4747V11.8368Z" fill="white"/>
</g>
<defs>
<clipPath id="clip0_2062_24917">
<rect width="55.5118" height="21.8082" fill="white" transform="translate(0.5 0.595703)"/>
</clipPath>
</defs>
</svg>
