<svg width="74" height="30" viewBox="0 0 74 30" fill="none" xmlns="http://www.w3.org/2000/svg">
<g id="Muse 1" clip-path="url(#clip0_1313_26938)">
<path id="Vector" d="M13.2736 10.5819L13.2734 1.1582L24.478 14.9943L24.4772 22.2491L13.2736 10.5819Z" fill="white"/>
<path id="Vector_2" d="M12.5936 0.5H12.6336C12.9858 0.5 13.2713 0.800681 13.2713 1.17162V23.5682H11.9531V1.17162C11.9531 0.800681 12.2386 0.5 12.5908 0.5H12.5936Z" fill="white"/>
<path id="Vector_3" d="M8.02029 27.36C11.4334 26.7675 13.7519 24.7373 13.199 22.8256C12.6461 20.9138 9.43103 19.8443 6.01802 20.4369C2.60499 21.0294 0.286408 23.0596 0.839323 24.9713C1.39224 26.8831 4.60728 27.9525 8.02029 27.36Z" fill="white"/>
<path id="Vector_4" d="M9.56079 21.4342C8.64874 21.2788 7.61871 21.2759 6.56361 21.4659C5.18305 21.7134 4.01352 22.2459 3.20521 22.9137C2.90835 23.1583 3.30893 23.5382 3.65586 23.3368C4.57146 22.8043 5.69808 22.3898 6.96417 22.1625C7.82613 22.007 8.67378 21.9523 9.47853 21.984C9.90773 22.0012 9.9828 21.5033 9.56435 21.4313L9.56079 21.4342Z" fill="#D9D8BC"/>
<path id="Vector_5" d="M2.97963 23.9361C2.97963 24.0974 2.8151 24.2298 2.61481 24.2298C2.41452 24.2298 2.25 24.0974 2.25 23.9361C2.25 23.775 2.41452 23.6426 2.61481 23.6426C2.8151 23.6426 2.97963 23.775 2.97963 23.9361Z" fill="#D9D8BC"/>
<path id="Vector_6" d="M39.6399 6.43164H34.3672V23.568H39.6399V6.43164Z" fill="white"/>
<path id="Vector_7" d="M34.518 6.43164L38.9759 8.98605L26.4531 23.5676L26.5252 15.1467L34.518 6.43164Z" fill="white"/>
<path id="Vector_8" d="M44.2848 20.9324C43.9318 20.9324 43.6566 20.8391 43.4593 20.6527C43.262 20.4663 43.1218 20.2333 43.0387 19.9537C42.966 19.6741 42.9297 19.3893 42.9297 19.0993V11.8294H44.5964V18.6022C44.5964 18.9233 44.6431 19.177 44.7366 19.3634C44.83 19.5395 45.0221 19.6275 45.3129 19.6275C45.4998 19.6275 45.6919 19.5757 45.8892 19.4721C46.0969 19.3582 46.2942 19.2236 46.4811 19.0683V11.8294H48.1478V20.8081H46.4811V19.9226C46.1904 20.2022 45.8581 20.4404 45.4842 20.6372C45.1208 20.834 44.721 20.9324 44.2848 20.9324ZM51.9396 20.9324C51.2023 20.9324 50.6104 20.7045 50.1639 20.2488C49.7174 19.7828 49.463 19.1718 49.4006 18.4158L50.787 17.9964C50.87 18.566 51.0102 18.9958 51.2075 19.2857C51.4048 19.5653 51.6956 19.7052 52.0798 19.7052C52.381 19.7052 52.6094 19.6223 52.7652 19.4566C52.921 19.2806 52.9988 19.0475 52.9988 18.7576C52.9988 18.4987 52.9417 18.2657 52.8275 18.0585C52.7133 17.8514 52.5263 17.6391 52.2667 17.4216L50.7247 16.1012C50.4131 15.832 50.1483 15.5317 49.9303 15.2003C49.7226 14.8689 49.6187 14.4391 49.6187 13.9109C49.6187 13.4345 49.7122 13.0358 49.8991 12.7148C50.0964 12.3834 50.3664 12.1349 50.7091 11.9692C51.0621 11.7931 51.4723 11.7051 51.9396 11.7051C52.6562 11.7051 53.2013 11.9381 53.5752 12.4041C53.9594 12.8598 54.1775 13.4138 54.2294 14.0663L53.1079 14.4857C53.0663 14.175 53.004 13.9057 52.921 13.6779C52.8379 13.4397 52.7236 13.2585 52.5783 13.1342C52.4329 12.9996 52.2408 12.9323 52.0019 12.9323C51.7319 12.9323 51.5139 13.0255 51.3477 13.2119C51.192 13.3879 51.1141 13.6002 51.1141 13.8488C51.1141 14.0041 51.1452 14.1595 51.2075 14.3148C51.2802 14.4598 51.3996 14.6048 51.5658 14.7498L53.1546 16.21C53.3727 16.4067 53.5752 16.619 53.7621 16.8469C53.9594 17.0747 54.1203 17.3336 54.245 17.6236C54.3696 17.9136 54.4319 18.2501 54.4319 18.6333C54.4319 19.1407 54.328 19.5653 54.1203 19.9071C53.9127 20.2488 53.6219 20.5078 53.2481 20.6838C52.8742 20.8495 52.4381 20.9324 51.9396 20.9324ZM58.1706 20.9324C57.4644 20.9324 56.9193 20.7977 56.535 20.5285C56.1508 20.2488 55.8808 19.845 55.7251 19.3168C55.5797 18.7783 55.507 18.1207 55.507 17.344V15.2935C55.507 14.496 55.5849 13.8333 55.7406 13.3051C55.8964 12.7769 56.1664 12.3782 56.5506 12.109C56.9452 11.8397 57.4852 11.7051 58.1706 11.7051C58.9286 11.7051 59.4842 11.8604 59.8373 12.1711C60.2007 12.4818 60.4396 12.9323 60.5538 13.5226C60.668 14.1025 60.7251 14.8015 60.7251 15.6197V16.3498H57.1737V18.1517C57.1737 18.5142 57.2048 18.8094 57.2671 19.0372C57.3398 19.265 57.4489 19.4359 57.5942 19.5498C57.75 19.6534 57.9473 19.7052 58.1862 19.7052C58.4354 19.7052 58.6223 19.6482 58.7469 19.5343C58.8819 19.41 58.9702 19.2391 59.0117 19.0217C59.0636 18.7938 59.0896 18.5297 59.0896 18.2294V17.6857H60.7096V18.0275C60.7096 18.9284 60.5175 19.6378 60.1332 20.1556C59.749 20.6734 59.0948 20.9324 58.1706 20.9324ZM57.1737 15.4488H59.0896V14.641C59.0896 14.2682 59.0688 13.9575 59.0273 13.709C58.9858 13.4501 58.8975 13.2585 58.7625 13.1342C58.6379 12.9996 58.4354 12.9323 58.155 12.9323C57.885 12.9323 57.6773 12.9944 57.5319 13.1187C57.3969 13.243 57.3035 13.4553 57.2516 13.7556C57.1996 14.0456 57.1737 14.4494 57.1737 14.9672V15.4488Z" fill="white"/>
</g>
<defs>
<clipPath id="clip0_1313_26938">
<rect width="73.8182" height="29" fill="white" transform="translate(0.09375 0.5)"/>
</clipPath>
</defs>
</svg>
