<svg width="16" height="16" viewBox="0 0 16 16" fill="none" xmlns="http://www.w3.org/2000/svg">
<g id="Plus / 24 / Outline">
<path id="Vector" d="M12.668 7.33366H8.66797V3.33366C8.66797 3.15685 8.59773 2.98728 8.47271 2.86225C8.34768 2.73723 8.17811 2.66699 8.0013 2.66699C7.82449 2.66699 7.65492 2.73723 7.5299 2.86225C7.40487 2.98728 7.33464 3.15685 7.33464 3.33366V7.33366H3.33464C3.15782 7.33366 2.98826 7.4039 2.86323 7.52892C2.73821 7.65395 2.66797 7.82351 2.66797 8.00033C2.66797 8.17714 2.73821 8.34671 2.86323 8.47173C2.98826 8.59675 3.15782 8.66699 3.33464 8.66699H7.33464V12.667C7.33464 12.8438 7.40487 13.0134 7.5299 13.1384C7.65492 13.2634 7.82449 13.3337 8.0013 13.3337C8.17811 13.3337 8.34768 13.2634 8.47271 13.1384C8.59773 13.0134 8.66797 12.8438 8.66797 12.667V8.66699H12.668C12.8448 8.66699 13.0143 8.59675 13.1394 8.47173C13.2644 8.34671 13.3346 8.17714 13.3346 8.00033C13.3346 7.82351 13.2644 7.65395 13.1394 7.52892C13.0143 7.4039 12.8448 7.33366 12.668 7.33366Z" fill="white"/>
</g>
</svg>
