<svg width="19" height="19" viewBox="0 0 19 19" fill="none" xmlns="http://www.w3.org/2000/svg">
<path id="Vector" d="M0.730769 14C0.331282 14 0 13.66 0 13.25V5.75C0 5.34 0.331282 5 0.730769 5C1.13026 5 1.46154 5.34 1.46154 5.75V13.25C1.46154 13.66 1.13026 14 0.730769 14ZM5.11538 16.5C4.7159 16.5 4.38462 16.16 4.38462 15.75V3.25C4.38462 2.84 4.7159 2.5 5.11538 2.5C5.51487 2.5 5.84615 2.84 5.84615 3.25V15.75C5.84615 16.16 5.51487 16.5 5.11538 16.5ZM9.5 19C9.10051 19 8.76923 18.66 8.76923 18.25V0.75C8.76923 0.34 9.10051 0 9.5 0C9.89949 0 10.2308 0.34 10.2308 0.75V18.25C10.2308 18.66 9.89949 19 9.5 19ZM13.8846 16.5C13.4851 16.5 13.1538 16.16 13.1538 15.75V3.25C13.1538 2.84 13.4851 2.5 13.8846 2.5C14.2841 2.5 14.6154 2.84 14.6154 3.25V15.75C14.6154 16.16 14.2841 16.5 13.8846 16.5ZM18.2692 14C17.8697 14 17.5385 13.66 17.5385 13.25V5.75C17.5385 5.34 17.8697 5 18.2692 5C18.6687 5 19 5.34 19 5.75V13.25C19 13.66 18.6687 14 18.2692 14Z" fill="white"/>
</svg>
