<svg width="24" height="24" viewBox="0 0 24 24" fill="none" xmlns="http://www.w3.org/2000/svg">
<g id="Group">
<g id="Group_2">
<path id="Path" fill-rule="evenodd" clip-rule="evenodd" d="M5.875 8.62486H3.5C2.948 8.62486 2.5 9.07286 2.5 9.62486V14.3749C2.5 14.9269 2.948 15.3749 3.5 15.3749H5.875L9.854 18.7459C10.504 19.2969 11.5 18.8349 11.5 17.9829V6.01686C11.5 5.16486 10.503 4.70286 9.854 5.25386L5.875 8.62486Z" fill="white" stroke="white" stroke-width="1.5" stroke-linecap="round" stroke-linejoin="round"/>
<path id="Path_2" d="M15.5352 15.9785C16.6972 15.2565 17.4982 13.7545 17.4982 12.0055C17.4982 10.2565 16.6972 8.75346 15.5352 8.02246" stroke="white" stroke-width="1.5" stroke-linecap="round" stroke-linejoin="round"/>
<path id="Path_3" d="M18.505 19.0645C20.313 17.5095 21.5 14.9295 21.5 12.0025C21.5 9.07155 20.311 6.48955 18.5 4.93555" stroke="white" stroke-width="1.5" stroke-linecap="round" stroke-linejoin="round"/>
</g>
</g>
</svg>
